<svg width="126" height="54" viewBox="0 0 126 54" fill="none" xmlns="http://www.w3.org/2000/svg">
<path d="M75.3968 18.676C72.6598 18.676 70.6218 20.02 70.6218 23.255C70.6218 25.692 71.9648 27.384 75.2498 27.384C78.0338 27.384 79.9258 25.743 79.9258 23.154C79.9258 20.22 78.2328 18.676 75.3968 18.676ZM69.9258 41.516C69.2778 42.311 68.6318 43.156 68.6318 44.153C68.6318 46.142 71.1678 46.74 74.6528 46.74C77.5378 46.74 81.4688 46.538 81.4688 43.855C81.4688 42.26 79.5768 42.162 77.1878 42.012L69.9258 41.516ZM84.6508 18.826C85.5458 19.971 86.4928 21.563 86.4928 23.852C86.4928 29.374 82.1638 32.608 75.8958 32.608C74.3018 32.608 72.8588 32.41 71.9638 32.161L70.3218 34.798L75.1968 35.095C83.8048 35.644 88.8788 35.893 88.8788 42.508C88.8788 48.231 83.8548 51.463 75.1968 51.463C66.1908 51.463 62.7588 49.174 62.7588 45.245C62.7588 43.005 63.7548 41.814 65.4958 40.169C63.8528 39.475 63.3068 38.232 63.3068 36.888C63.3068 35.793 63.8538 34.798 64.7498 33.852C65.6458 32.908 66.6408 31.961 67.8338 30.867C65.3958 29.673 63.5558 27.086 63.5558 23.403C63.5558 17.682 67.3368 13.753 74.9488 13.753C77.0888 13.753 78.3838 13.95 79.5268 14.251H89.2298V18.479L84.6508 18.826ZM97.9828 9.78598C95.1458 9.78598 93.5038 8.14298 93.5038 5.30598C93.5038 2.47298 95.1458 0.928986 97.9828 0.928986C100.869 0.928986 102.51 2.47198 102.51 5.30598C102.511 8.14298 100.869 9.78598 97.9828 9.78598ZM91.5628 39.686V35.757L94.1018 35.409C94.7978 35.309 94.8968 35.16 94.8968 34.412V19.785C94.8968 19.239 94.7488 18.889 94.2498 18.741L91.5628 17.795L92.1098 13.767H102.411V34.413C102.411 35.211 102.459 35.309 103.207 35.41L105.745 35.758V39.687L91.5628 39.686ZM125.42 37.756C123.279 38.799 120.146 39.746 117.308 39.746C111.388 39.746 109.15 37.36 109.15 31.735V18.7C109.15 18.403 109.15 18.203 108.751 18.203H105.269V13.775C109.649 13.276 111.389 11.087 111.936 5.66399H116.664V12.731C116.664 13.078 116.664 13.229 117.062 13.229H124.077V18.204H116.664V30.094C116.664 33.029 117.361 34.173 120.047 34.173C121.442 34.173 122.883 33.826 124.077 33.378L125.42 37.756Z" fill="#31251C"/>
<path d="M51.6998 24.7L28.9508 1.95198C27.6418 0.641982 25.5168 0.641982 24.2068 1.95198L19.4828 6.67598L25.4738 12.668C26.8678 12.198 28.4638 12.513 29.5738 13.624C30.6898 14.741 31.0028 16.351 30.5208 17.749L36.2958 23.524C37.6918 23.043 39.3048 23.354 40.4208 24.471C41.9808 26.03 41.9808 28.557 40.4208 30.117C38.8598 31.677 36.3338 31.677 34.7738 30.117C33.6008 28.943 33.3108 27.22 33.9048 25.775L28.5188 20.389L28.5178 34.563C28.8988 34.751 29.2568 35.001 29.5738 35.317C31.1338 36.876 31.1338 39.402 29.5738 40.964C28.0138 42.523 25.4858 42.523 23.9278 40.964C22.3678 39.402 22.3678 36.876 23.9278 35.317C24.3138 34.932 24.7588 34.641 25.2348 34.446V20.141C24.7588 19.947 24.3138 19.657 23.9278 19.27C22.7458 18.089 22.4618 16.356 23.0678 14.905L17.1618 8.99698L1.56284 24.595C0.25184 25.906 0.25184 28.031 1.56284 29.342L24.3118 52.09C25.6218 53.4 27.7458 53.4 29.0578 52.09L51.6998 29.446C53.0108 28.136 53.0108 26.01 51.6998 24.7Z" fill="#F34F29"/>
</svg>
