<svg width="24" height="17" viewBox="0 0 24 17" fill="none" xmlns="http://www.w3.org/2000/svg">
<path d="M6.532 15.5539C6.386 15.5539 6.256 15.5449 6.146 15.5279V16.0129C6.372 16.1029 6.559 16.1479 6.712 16.1479C7.285 16.1479 7.813 15.7979 8.295 15.0949C8.911 14.1849 9.409 12.7239 9.787 10.7159H8.907C8.7662 11.8849 8.48587 13.0327 8.072 14.1349C8.1 13.9259 8.031 13.5589 7.867 13.0329L7.14 10.7159H6.23L7.244 13.8149C7.397 14.2799 7.474 14.5899 7.474 14.7419C7.474 14.9609 7.376 15.1589 7.179 15.3359C7.015 15.4799 6.8 15.5539 6.532 15.5539Z" fill="#105E86"/>
<path d="M19.4819 9.29297V14.722H22.1119V14.054H20.3669V9.29297H19.4819Z" fill="#DE8A03"/>
<path d="M1.04 10.392H1.05L2.45 14.722H3.155L4.565 10.392H4.573C4.72684 11.8306 4.81693 13.2754 4.843 14.722H5.773C5.71576 12.9066 5.57294 11.0949 5.345 9.29297H4.25L2.903 13.283H2.895L1.56 9.29297H0.41C0.183204 11.0947 0.0463676 12.9066 0 14.722H0.845C0.872 13.134 0.937 11.691 1.04 10.392Z" fill="#105E86"/>
<path d="M18.6791 11.906C18.6791 10.11 17.9611 9.20996 16.5241 9.20996C15.8201 9.20996 15.2701 9.43796 14.8741 9.89396C14.4441 10.393 14.2281 11.127 14.2281 12.098C14.2281 13.052 14.4181 13.753 14.8021 14.199C15.1521 14.602 15.6791 14.803 16.3851 14.803C16.6491 14.803 16.8911 14.771 17.1101 14.707L18.4351 15.465L18.7951 14.855H18.7921L17.7761 14.364C17.8661 14.289 17.9531 14.209 18.0311 14.119C18.4641 13.621 18.6791 12.883 18.6791 11.906ZM16.4761 14.131C16.0311 14.131 15.7061 13.967 15.4981 13.64L15.5001 13.635C15.2751 13.282 15.1631 12.712 15.1631 11.931C15.1631 10.563 15.5871 9.87896 16.4331 9.87896C16.8761 9.87896 17.2031 10.043 17.4101 10.37C17.6341 10.725 17.7461 11.289 17.7461 12.062C17.7461 13.44 17.3221 14.131 16.4761 14.131ZM13.2001 12.074C13.2001 12.074 12.4061 11.627 12.0131 11.416C11.5811 11.18 11.3471 10.903 11.3471 10.582C11.3479 10.4831 11.3706 10.3857 11.4135 10.2967C11.4563 10.2077 11.5184 10.1292 11.5951 10.067C11.7471 9.93096 11.9661 9.86496 12.2491 9.86496C12.5981 9.86496 12.9531 9.94096 13.3131 10.091L13.5261 9.62396C13.1086 9.35637 12.622 9.21665 12.1261 9.22196C11.6261 9.22196 11.2211 9.35596 10.9061 9.62896C10.5931 9.89896 10.4361 10.252 10.4361 10.694C10.4361 11.225 10.6461 11.548 11.0681 11.85C11.0681 11.85 11.8431 12.286 12.2311 12.495C12.6491 12.726 12.8791 13.001 12.8791 13.325C12.8808 13.4422 12.8545 13.5582 12.8023 13.6633C12.7501 13.7683 12.6736 13.8594 12.5791 13.929C12.3891 14.073 12.1281 14.145 11.7961 14.145C11.4391 14.145 11.0441 14.039 10.6061 13.823L10.3691 14.29C10.8781 14.627 11.3991 14.796 11.9421 14.796C12.5231 14.796 12.9821 14.649 13.3261 14.354C13.6701 14.06 13.8421 13.681 13.8421 13.219L13.8481 13.222C13.8481 12.693 13.6331 12.374 13.2001 12.074Z" fill="#DE8A03"/>
<path d="M16.4049 1.76793C16.2899 1.76793 16.2119 1.78193 16.1309 1.79993V1.81293H16.1449C16.1989 1.91493 16.2909 1.98993 16.3589 2.08093C16.4129 2.18593 16.4589 2.29093 16.5129 2.39493L16.5269 2.37993C16.6209 2.31493 16.6669 2.21093 16.6669 2.05293C16.6269 2.00693 16.6209 1.96093 16.5869 1.91593C16.5469 1.84993 16.4609 1.81793 16.4069 1.76593L16.4049 1.76793Z" fill="#105E86"/>
<path d="M23.6949 9.19996C23.4977 8.94541 23.2635 8.72191 22.9999 8.53696C22.7859 8.39396 22.3179 8.19296 22.2299 7.95296L22.2169 7.93896C22.3629 7.92596 22.5369 7.87396 22.6769 7.83496C22.9039 7.77596 23.1119 7.78896 23.3469 7.73096C23.4529 7.70496 23.5599 7.67196 23.6669 7.63896V7.57996C23.5469 7.46196 23.4569 7.30196 23.3329 7.19196C22.9863 6.89458 22.6172 6.62444 22.2289 6.38396C22.0189 6.25196 21.7529 6.16796 21.5319 6.05596C21.4519 6.01696 21.3179 5.99696 21.2719 5.93096C21.1519 5.78796 21.0819 5.59696 20.9969 5.42596C20.8049 5.06496 20.6169 4.66496 20.4499 4.28396C20.3299 4.02696 20.2569 3.77096 20.1099 3.53496C19.4199 2.41896 18.6729 1.74196 17.5239 1.08096C17.2769 0.943963 16.9809 0.884963 16.6679 0.811963C16.5009 0.803963 16.3339 0.791963 16.1679 0.784963C16.0579 0.738963 15.9519 0.613963 15.8579 0.553963C15.4779 0.317963 14.4939 -0.192037 14.2139 0.482963C14.0339 0.908963 14.4809 1.32896 14.6359 1.54496C14.7509 1.69496 14.8959 1.86696 14.9759 2.03596C15.0229 2.14996 15.0359 2.26696 15.0829 2.38596C15.1889 2.67496 15.2899 2.99596 15.4299 3.26696C15.5029 3.40396 15.5829 3.54896 15.6769 3.67196C15.7309 3.74396 15.8229 3.77696 15.8439 3.89496C15.7499 4.02896 15.7439 4.22296 15.6899 4.38596C15.4499 5.12896 15.5439 6.04796 15.8839 6.59496C15.9909 6.75796 16.2459 7.11896 16.5869 6.98096C16.8869 6.86296 16.8209 6.48996 16.9069 6.16096C16.9269 6.08196 16.9139 6.02996 16.9549 5.97696V5.99196C17.0489 6.17696 17.1429 6.35196 17.2289 6.53696C17.4349 6.85896 17.7949 7.19296 18.0959 7.41596C18.2559 7.53396 18.3829 7.73796 18.5829 7.81096V7.79096H18.5679C18.5249 7.73396 18.4679 7.70696 18.4139 7.65996C18.2872 7.53825 18.1702 7.40685 18.0639 7.26696C17.7825 6.88947 17.5327 6.48945 17.3169 6.07096C17.2069 5.86496 17.1149 5.64296 17.0269 5.43996C16.9869 5.36196 16.9869 5.24396 16.9199 5.20396C16.8199 5.34696 16.6729 5.47196 16.5999 5.64896C16.4729 5.93196 16.4599 6.27896 16.4119 6.64096C16.3849 6.64796 16.3979 6.64096 16.3849 6.65496C16.1709 6.60396 16.0979 6.38596 16.0179 6.20296C15.8179 5.73696 15.7849 4.98796 15.9579 4.44996C16.0049 4.31296 16.2049 3.87896 16.1249 3.74696C16.0829 3.62196 15.9509 3.55096 15.8779 3.44996C15.7843 3.31856 15.7039 3.17821 15.6379 3.03096C15.4779 2.66396 15.3979 2.25696 15.2239 1.88996C15.1439 1.71996 15.0039 1.54196 14.8899 1.38596C14.7629 1.20896 14.6229 1.08496 14.5219 0.874963C14.4889 0.802963 14.4419 0.683963 14.4949 0.605963C14.5089 0.552963 14.5369 0.531963 14.5889 0.517963C14.6769 0.446963 14.9239 0.539963 15.0109 0.578963C15.2579 0.676963 15.4659 0.768963 15.6729 0.906963C15.7669 0.971963 15.8679 1.09596 15.9879 1.12896H16.1279C16.3419 1.17496 16.5829 1.14296 16.7829 1.20096C17.1379 1.31296 17.4579 1.47596 17.7449 1.65296C18.6258 2.20381 19.3452 2.97803 19.8299 3.89696C19.9099 4.04796 19.9449 4.18696 20.0179 4.34396C20.1579 4.66796 20.3309 4.99496 20.4729 5.30796C20.6129 5.61696 20.7479 5.93296 20.9489 6.18896C21.0489 6.32596 21.4509 6.39796 21.6309 6.46996C21.7639 6.52896 21.9709 6.58296 22.0909 6.65496C22.3209 6.79196 22.5449 6.94996 22.7609 7.10096C22.8709 7.17596 23.2039 7.33996 23.2239 7.47196C22.6889 7.45796 22.2739 7.51096 21.9269 7.65696C21.8269 7.69596 21.6669 7.69596 21.6529 7.82096C21.7079 7.87296 21.7159 7.95796 21.7629 8.03096C21.8429 8.16196 21.9809 8.33796 22.1089 8.43096C22.2489 8.53896 22.3889 8.64296 22.5359 8.73496C22.7959 8.89196 23.0909 8.98496 23.3459 9.14296C23.4909 9.23496 23.6389 9.35196 23.7859 9.44996C23.8589 9.49896 23.9059 9.58796 23.9999 9.61896V9.59996C23.9539 9.54096 23.9399 9.45596 23.8949 9.38996C23.8279 9.32396 23.7609 9.26496 23.6949 9.19996Z" fill="#105E86"/>
</svg>
