<svg width="120" height="34" viewBox="0 0 120 34" fill="none" xmlns="http://www.w3.org/2000/svg">
<path d="M110.325 33.749C110.035 33.749 109.747 33.673 109.493 33.525L106.843 31.957C106.447 31.736 106.64 31.657 106.771 31.612C107.299 31.428 107.406 31.385 107.969 31.067C108.028 31.034 108.105 31.046 108.166 31.082L110.201 32.291C110.275 32.332 110.38 32.332 110.447 32.291L118.384 27.71C118.459 27.668 118.506 27.583 118.506 27.495V18.335C118.506 18.245 118.459 18.162 118.383 18.116L110.449 13.539C110.375 13.497 110.278 13.497 110.204 13.539L102.271 18.117C102.195 18.162 102.146 18.248 102.146 18.335V27.495C102.146 27.583 102.195 27.666 102.271 27.707L104.445 28.964C105.625 29.553 106.348 28.859 106.348 28.161V19.116C106.348 18.989 106.451 18.888 106.578 18.888H107.585C107.71 18.888 107.814 18.989 107.814 19.116V28.161C107.814 29.735 106.957 30.638 105.464 30.638C105.005 30.638 104.644 30.638 103.636 30.142L101.555 28.944C101.04 28.646 100.723 28.09 100.723 27.496V18.336C100.723 17.741 101.04 17.186 101.555 16.89L109.492 12.303C109.994 12.02 110.661 12.02 111.159 12.303L119.096 16.89C119.61 17.187 119.929 17.742 119.929 18.336V27.496C119.929 28.091 119.61 28.644 119.096 28.944L111.159 33.526C110.907 33.673 110.62 33.749 110.325 33.749ZM112.778 27.438C109.303 27.438 108.576 25.843 108.576 24.506C108.576 24.38 108.679 24.277 108.806 24.277H109.832C109.947 24.277 110.042 24.359 110.06 24.471C110.214 25.516 110.677 26.043 112.778 26.043C114.449 26.043 115.161 25.665 115.161 24.777C115.161 24.265 114.959 23.886 112.361 23.631C110.189 23.416 108.846 22.937 108.846 21.198C108.846 19.597 110.196 18.641 112.458 18.641C115.001 18.641 116.259 19.524 116.418 21.418C116.424 21.482 116.401 21.545 116.358 21.594C116.314 21.639 116.254 21.667 116.19 21.667H115.159C115.052 21.667 114.958 21.592 114.936 21.488C114.688 20.388 114.088 20.037 112.457 20.037C110.632 20.037 110.42 20.674 110.42 21.149C110.42 21.726 110.67 21.894 113.135 22.22C115.574 22.543 116.733 22.999 116.733 24.714C116.734 26.447 115.292 27.438 112.778 27.438Z" fill="#83CD29"/>
<path d="M93.9818 21.43C94.2948 21.247 94.4878 20.913 94.4878 20.55V18.196C94.4878 17.834 94.2958 17.5 93.9818 17.317L85.6178 12.461C85.3028 12.278 84.9148 12.277 84.5988 12.459L76.1828 17.318C75.8688 17.5 75.6748 17.835 75.6748 18.198V27.914C75.6748 28.279 75.8708 28.617 76.1888 28.798L84.5518 33.563C84.8598 33.74 85.2378 33.741 85.5488 33.569L90.6068 30.757C90.7678 30.667 90.8678 30.499 90.8688 30.317C90.8698 30.133 90.7718 29.963 90.6128 29.872L82.1448 25.012C81.9858 24.921 81.8888 24.753 81.8888 24.572V21.526C81.8888 21.344 81.9858 21.177 82.1428 21.087L84.7798 19.567C84.9358 19.476 85.1298 19.476 85.2868 19.567L87.9238 21.087C88.0818 21.178 88.1788 21.345 88.1788 21.526V23.922C88.1788 24.105 88.2758 24.273 88.4328 24.363C88.5908 24.454 88.7848 24.454 88.9428 24.362L93.9818 21.43Z" fill="#404137"/>
<path d="M84.984 20.974C85.045 20.94 85.119 20.94 85.179 20.974L86.794 21.907C86.854 21.942 86.891 22.007 86.891 22.076V23.941C86.891 24.011 86.854 24.075 86.794 24.11L85.179 25.042C85.119 25.077 85.044 25.077 84.984 25.042L83.37 24.11C83.309 24.075 83.272 24.011 83.272 23.941V22.076C83.272 22.007 83.309 21.942 83.37 21.907L84.984 20.974Z" fill="#83CD29"/>
<path d="M63.0829 24.854C63.0829 24.944 63.0349 25.028 62.9559 25.074L60.0659 26.74C59.9869 26.786 59.8899 26.786 59.8119 26.74L56.9219 25.074C56.8429 25.028 56.7949 24.944 56.7949 24.854V21.516C56.7949 21.426 56.8439 21.341 56.9219 21.295L59.8119 19.627C59.8909 19.58 59.9879 19.58 60.0669 19.627L62.9579 21.295C63.0359 21.341 63.0839 21.426 63.0839 21.516L63.0829 24.854ZM63.8639 0.138002C63.7069 0.0510022 63.5149 0.0530027 63.3589 0.144003C63.2039 0.236003 63.1079 0.402002 63.1079 0.582002V13.497C63.1079 13.623 63.0399 13.741 62.9309 13.805C62.8209 13.868 62.6849 13.868 62.5749 13.805L60.4669 12.59C60.1529 12.409 59.7659 12.409 59.4519 12.59L51.0339 17.448C50.7189 17.63 50.5249 17.966 50.5249 18.329V28.048C50.5249 28.411 50.7189 28.746 51.0329 28.929L59.4509 33.79C59.7649 33.972 60.1529 33.972 60.4679 33.79L68.8879 28.929C69.2019 28.746 69.3959 28.411 69.3959 28.048V3.821C69.3959 3.453 69.1959 3.113 68.8749 2.933L63.8639 0.138002Z" fill="#404137"/>
<path d="M34.2379 12.407C34.5519 12.225 34.9399 12.225 35.2539 12.407L43.6719 17.264C43.9859 17.446 44.1799 17.782 44.1799 18.145V27.867C44.1799 28.23 43.9859 28.566 43.6719 28.748L35.2549 33.609C34.9409 33.79 34.5529 33.79 34.2379 33.609L25.8229 28.748C25.5089 28.566 25.3149 28.23 25.3149 27.867V18.144C25.3149 17.782 25.5089 17.446 25.8229 17.264L34.2379 12.407Z" fill="#83CD29"/>
<path d="M18.9299 18.064C18.9299 17.698 18.7379 17.362 18.4219 17.181L10.0069 12.338C9.8629 12.254 9.70389 12.211 9.54289 12.205H9.45589C9.29589 12.211 9.13589 12.254 8.99189 12.338L0.575895 17.181C0.262895 17.362 0.0668945 17.698 0.0668945 18.064L0.0848947 31.104C0.0848947 31.286 0.179895 31.455 0.338895 31.543C0.494895 31.637 0.687894 31.637 0.843894 31.543L5.84389 28.679C6.15989 28.491 6.35289 28.16 6.35289 27.797V21.705C6.35289 21.341 6.54489 21.006 6.85989 20.824L8.98989 19.598C9.14789 19.505 9.32189 19.461 9.49789 19.461C9.67189 19.461 9.84989 19.505 10.0049 19.598L12.1329 20.824C12.4479 21.006 12.6419 21.341 12.6419 21.705V27.797C12.6419 28.16 12.8369 28.493 13.1509 28.679L18.1509 31.543C18.3079 31.637 18.5039 31.637 18.6589 31.543C18.8139 31.454 18.9109 31.285 18.9109 31.104L18.9299 18.064Z" fill="#404137"/>
</svg>
