<svg width="20" height="14" viewBox="0 0 20 14" fill="none" xmlns="http://www.w3.org/2000/svg">
<path d="M16.5 4.51002C15.7501 4.25173 15.0881 3.78731 14.59 3.17002C14.041 2.48225 13.3421 1.92916 12.5465 1.55304C11.7509 1.17693 10.8799 0.987765 10 1.00002C8.81637 0.916195 7.64458 1.28126 6.71801 2.02253C5.79143 2.76379 5.17804 3.82685 5 5.00002C5.35067 4.41326 5.87845 3.95289 6.50739 3.68514C7.13633 3.41739 7.834 3.35608 8.5 3.51002C9.24869 3.77583 9.90958 4.24295 10.41 4.86002C10.962 5.54229 11.6623 6.08967 12.4577 6.46051C13.2531 6.83134 14.1226 7.01586 15 7.00002C16.1836 7.08384 17.3554 6.71878 18.282 5.97751C19.2086 5.23625 19.822 4.17319 20 3.00002C19.6557 3.59379 19.1296 4.06112 18.4994 4.33302C17.8691 4.60492 17.1682 4.66697 16.5 4.51002ZM3.5 9.49002C4.24995 9.74831 4.91192 10.2127 5.41 10.83C5.95895 11.5178 6.65794 12.0709 7.4535 12.447C8.24906 12.8231 9.1201 13.0123 10 13C11.1836 13.0838 12.3554 12.7188 13.282 11.9775C14.2086 11.2363 14.822 10.1732 15 9.00002C14.6493 9.58678 14.1215 10.0472 13.4926 10.3149C12.8637 10.5826 12.166 10.644 11.5 10.49C10.7513 10.2242 10.0904 9.75709 9.59 9.14002C9.03656 8.45944 8.33595 7.91325 7.54091 7.54258C6.74587 7.17191 5.8771 6.9864 5 7.00002C3.81637 6.9162 2.64458 7.28126 1.71801 8.02253C0.791428 8.76379 0.178042 9.82685 0 11C0.344307 10.4062 0.870408 9.93892 1.50063 9.66702C2.13086 9.39512 2.83181 9.33307 3.5 9.49002Z" fill="white"/>
</svg>
