<svg width="567" height="569" viewBox="0 0 567 569" fill="none" xmlns="http://www.w3.org/2000/svg">
<path d="M0 2.00004C65.25 -1.29996 130.5 -4.44996 175.2 29.75C219.9 63.95 244.05 135.8 285.6 175.85C327.3 215.75 386.25 224 432 255.05C477.75 286.25 510.45 340.4 530.7 396.5C550.95 452.75 559.05 510.8 567 569H0V2.00004Z" fill="#001E3E"/>
<path d="M0 143.75C48.9 141.35 97.95 138.8 131.4 164.6C165 190.25 183 244.1 214.2 274.1C245.4 304.1 289.65 310.25 324 333.65C358.35 356.9 382.8 397.55 397.95 439.7C413.25 481.85 419.25 525.35 425.25 569H0V143.75Z" fill="#00307F"/>
<path d="M0 285.5C32.7 283.85 65.25 282.2 87.6 299.45C109.95 316.55 122.1 352.4 142.8 372.35C163.65 392.45 193.05 396.5 216 412.1C238.95 427.7 255.15 454.7 265.35 482.75C275.55 510.8 279.45 539.9 283.5 569H0V285.5Z" fill="#3C34B7"/>
<path d="M0 427.25C16.35 426.5 32.7 425.6 43.8 434.15C55.05 442.7 61.05 460.7 71.4 470.75C81.75 480.65 96.6 482.75 108 490.55C119.4 498.35 127.65 511.85 132.6 525.95C137.7 539.9 139.8 554.45 141.75 569H0V427.25Z" fill="#7028CD"/>
</svg>
