<svg width="61" height="179" viewBox="0 0 61 179" fill="none" xmlns="http://www.w3.org/2000/svg">
<path d="M31.1387 0.0820925H29.6494C25.7557 0.0816586 21.9 0.914837 18.3026 2.53404C14.7052 4.15325 11.4365 6.52677 8.68322 9.51904C5.92994 12.5113 3.74599 16.0637 2.25611 19.9734C0.766233 23.8831 -0.000399058 28.0735 1.55833e-07 32.3052V73.5626C-0.000399058 77.7943 0.766233 81.9847 2.25611 85.8943C3.74599 89.804 5.92994 93.3564 8.68322 96.3487C11.4365 99.341 14.7052 101.715 18.3026 103.334C21.9 104.953 25.7557 105.786 29.6494 105.786H31.1387C35.0324 105.786 38.8881 104.953 42.4855 103.334C46.0829 101.715 49.3516 99.341 52.1049 96.3487C54.8582 93.3564 57.0421 89.804 58.532 85.8943C60.0219 81.9847 60.7885 77.7943 60.7881 73.5626V32.3052C60.7885 28.0735 60.0219 23.8831 58.532 19.9734C57.0421 16.0637 54.8582 12.5113 52.1049 9.51904C49.3516 6.52677 46.0829 4.15325 42.4855 2.53404C38.8881 0.914837 35.0324 0.0816586 31.1387 0.0820925ZM57.7487 73.1728C57.7487 89.3587 45.6762 102.482 30.7801 102.482H30.005C26.4636 102.482 22.9568 101.724 19.685 100.251C16.4132 98.7783 13.4404 96.6193 10.9364 93.8976C8.43235 91.1759 6.44614 87.9449 5.09117 84.3889C3.7362 80.8329 3.03901 77.0217 3.03941 73.1728V32.695C3.03901 28.8458 3.7363 25.0343 5.09146 21.4781C6.44662 17.9219 8.4331 14.6907 10.9374 11.969C13.4418 9.24721 16.415 7.0883 19.6871 5.61551C22.9593 4.14271 26.4664 3.3849 30.0081 3.38533H30.7831C45.6762 3.38533 57.7487 16.5058 57.7487 32.695V73.1728Z" fill="#61DAFB"/>
<path d="M30.9596 19.9016H29.8259C28.3641 19.9024 26.9625 20.5341 25.9292 21.6578C24.8959 22.7814 24.3154 24.305 24.3154 25.8936V46.9452C24.3154 50.2517 26.7834 52.9339 29.8289 52.9339H30.9626C32.4243 52.933 33.8259 52.3013 34.8593 51.1777C35.8926 50.0541 36.4731 48.5305 36.4731 46.9418V25.8936C36.4731 24.3044 35.8922 22.7803 34.8582 21.6566C33.8242 20.5329 32.4218 19.9016 30.9596 19.9016ZM33.4336 46.3274C33.4336 47.2035 33.1134 48.0437 32.5434 48.6632C31.9734 49.2827 31.2003 49.6307 30.3942 49.6307C29.5881 49.6307 28.8151 49.2827 28.2451 48.6632C27.6751 48.0437 27.3548 47.2035 27.3548 46.3274V26.508C27.3548 25.632 27.6751 24.7918 28.2451 24.1723C28.8151 23.5528 29.5881 23.2048 30.3942 23.2048C31.2003 23.2048 31.9734 23.5528 32.5434 24.1723C33.1134 24.7918 33.4336 25.632 33.4336 26.508V46.3274Z" fill="#61DAFB"/>
<path d="M30.5091 140.479C30.5235 140.46 30.5293 140.434 30.5436 140.415L40.5796 128.072C41.1401 127.378 41.1401 126.251 40.5796 125.557C40.5738 125.55 40.5681 125.547 40.5623 125.544C40.4376 125.376 40.2814 125.24 40.1046 125.146C39.9278 125.052 39.7348 125.002 39.5389 125H19.4641C19.2647 125.004 19.0683 125.056 18.889 125.153C18.7097 125.251 18.5517 125.39 18.4263 125.563L18.4206 125.557C18.1493 125.906 18 126.353 18 126.814C18 127.276 18.1493 127.723 18.4206 128.072L28.4795 140.479C28.6047 140.642 28.7603 140.773 28.9355 140.863C29.1107 140.953 29.3014 141 29.4943 141C29.6873 141 29.8779 140.953 30.0531 140.863C30.2283 140.773 30.3839 140.642 30.5091 140.479Z" fill="#61DAFB"/>
<path d="M31.1234 178.218C31.1465 178.189 31.1558 178.151 31.1789 178.122L47.3236 159.608C48.2255 158.567 48.2255 156.877 47.3236 155.835C47.3144 155.826 47.3051 155.821 47.2959 155.816C47.0952 155.564 46.844 155.36 46.5596 155.219C46.2752 155.078 45.9646 155.003 45.6495 155H13.3554C13.0345 155.005 12.7186 155.084 12.4301 155.23C12.1416 155.376 11.8876 155.586 11.6858 155.845L11.6766 155.835C11.2402 156.359 11 157.029 11 157.722C11 158.414 11.2402 159.084 11.6766 159.608L27.8584 178.218C28.0598 178.463 28.3101 178.66 28.5919 178.795C28.8738 178.93 29.1805 179 29.4909 179C29.8013 179 30.108 178.93 30.3898 178.795C30.6716 178.66 30.9219 178.463 31.1234 178.218Z" fill="#61DAFB"/>
</svg>
