<svg width="24" height="20" viewBox="0 0 24 20" fill="none" xmlns="http://www.w3.org/2000/svg">
<path d="M23.9252 10.8389L23.9262 10.8589L23.9292 10.8769L23.9252 10.8389ZM22.8972 8.06793L22.9122 8.09393L22.9142 8.09693L22.8972 8.06793Z" fill="black"/>
<path d="M15.7519 8.41791H15.7269C14.8919 8.41791 14.1279 8.71591 13.5389 9.20791C12.9469 9.70791 12.5549 10.4139 12.5089 11.2139H12.5099C12.4649 12.0359 12.7949 12.7979 13.3749 13.3649C13.9849 13.9469 14.8099 14.3039 15.7189 14.3039H15.7859C16.6949 14.3039 17.5199 13.9469 18.1269 13.3659C18.7069 12.7989 19.0369 12.0359 18.9919 11.2129C18.9469 10.4139 18.5559 9.70791 17.9639 9.20791C17.3424 8.69268 16.5592 8.41297 15.7519 8.41791Z" fill="#1976D2"/>
<path d="M22.0882 16.9649C22.8012 16.1848 23.3389 15.2611 23.6652 14.2559L23.6802 14.2029C23.8946 13.5281 24.0025 12.824 24.0002 12.1159C23.9983 10.7827 23.6213 9.47694 22.9122 8.34792C22.4247 7.57036 21.8047 6.8843 21.0802 6.32092L21.0622 6.30792H21.0642L13.5462 0.53592C13.0542 0.15792 12.2272 0.15992 11.6862 0.53792C11.1392 0.91992 11.0772 1.55292 11.5632 1.95292L11.5622 1.95392L14.6882 4.49692L5.14521 4.50692C4.35721 4.50792 3.60021 5.02492 3.45021 5.67892C3.29621 6.34392 3.83021 6.89592 4.65021 6.89892V6.90092L9.48021 6.89092L0.826211 13.5329C0.013211 14.1549 -0.248789 15.1909 0.263211 15.8459C0.783211 16.5129 1.88821 16.5139 2.71021 15.8499L7.41421 12.0009C7.41421 12.0009 7.34521 12.5209 7.35121 12.8319L7.34921 12.8309C7.35521 13.1449 7.45521 13.7529 7.60521 14.2289C7.93023 15.255 8.47563 16.1977 9.20321 16.9909C9.96753 17.8302 10.8969 18.5026 11.9332 18.9659L11.9852 18.9869C13.1211 19.492 14.3511 19.7511 15.5942 19.7469H15.6632C16.9632 19.7469 18.1972 19.4679 19.3122 18.9699C20.3632 18.5016 21.3062 17.8214 22.0822 16.9719L22.0882 16.9649ZM20.4712 12.9539C20.2461 13.5599 19.8946 14.1111 19.4402 14.5709L19.4382 14.5719C18.4682 15.5599 17.1122 16.1199 15.6432 16.1219C14.1732 16.1259 12.8162 15.5699 11.8462 14.5839C11.396 14.1318 11.0463 13.5896 10.8202 12.9929L10.8102 12.9619C10.6417 12.4978 10.5564 12.0077 10.5582 11.5139C10.5582 10.7619 10.7532 10.0559 11.0932 9.44092C11.3845 8.91862 11.7724 8.45643 12.2362 8.07892L12.2452 8.07192C13.1872 7.30392 14.3862 6.88892 15.6412 6.88692C16.8962 6.88492 18.0962 7.29692 19.0392 8.06192C19.5192 8.45292 19.9092 8.91592 20.1912 9.42892C20.4702 9.92092 20.6562 10.5009 20.7122 11.1179L20.7132 11.1339C20.7682 11.751 20.6855 12.3726 20.4712 12.9539Z" fill="#FF9800"/>
<path d="M19.3592 18.6979C19.3442 18.7049 19.3282 18.7089 19.3122 18.7159C19.309 18.7172 19.306 18.7189 19.3032 18.7209L19.3592 18.6979Z" fill="black"/>
</svg>
