<svg width="121" height="138" viewBox="0 0 121 138" fill="none" xmlns="http://www.w3.org/2000/svg">
<path d="M115.318 30.9347L66.0424 2.10237C64.3847 1.13826 62.5056 0.630857 60.5931 0.630857C58.6806 0.630857 56.8016 1.13826 55.1438 2.10237L5.86816 30.9347C4.21744 31.9016 2.84752 33.2906 1.89607 34.9622C0.944615 36.6338 0.44514 38.5291 0.447833 40.4576V98.0637C0.44514 99.9923 0.944615 101.888 1.89607 103.559C2.84752 105.231 4.21744 106.62 5.86816 107.587L55.1438 136.419C56.8016 137.383 58.6806 137.89 60.5931 137.89C62.5056 137.89 64.3847 137.383 66.0424 136.419L115.318 107.587C116.969 106.62 118.339 105.231 119.29 103.559C120.242 101.888 120.741 99.9923 120.738 98.0637V40.4576C120.741 38.5291 120.242 36.6338 119.29 34.9622C118.339 33.2906 116.969 31.9016 115.318 30.9347ZM59.6366 107.792C34.8538 107.792 22.1291 91.8519 22.1291 69.7002C22.1291 47.5485 36.622 30.4952 60.6801 30.4952C87.5208 30.4952 94.9991 48.3689 95.4629 56.8663H73.8975C72.5642 50.8302 68.883 46.6402 60.2743 46.6402C50.1873 46.6402 44.4771 54.8445 44.4771 69.1728C44.4771 84.9075 50.5351 92.0863 60.1873 92.0863C63.207 92.2548 66.1942 91.385 68.6626 89.6187C71.131 87.8523 72.9352 85.2933 73.7816 82.3583H95.4339C92.6803 94.5183 83.3469 107.792 59.6366 107.792ZM110.13 66.7701H107.231L106.362 70.3741H108.709V73.6265H105.637L104.39 78.8714H101.492L102.767 73.6265H99.5499L98.1875 78.7542H95.289L96.5643 73.5093H94.3035V70.2569H97.376L98.1875 66.6529H95.7238V63.4004H98.9702L100.159 58.5657H103.057L101.985 63.4004H105.202L106.362 58.5657H109.26L108.072 63.4004H110.159L110.13 66.7701Z" fill="black"/>
</svg>
