<svg width="197" height="197" viewBox="0 0 197 197" fill="none" xmlns="http://www.w3.org/2000/svg">
<path d="M101.512 197H95.6725C95.3992 196.9 95.1297 196.877 94.8564 196.877C91.7383 196.727 88.6433 196.48 85.5752 196.061C79.8355 195.318 74.1921 194.056 68.6988 192.301C59.2713 189.284 50.4867 184.954 42.3449 179.312C34.796 174.067 28.117 167.882 22.3004 160.759C15.4443 152.396 10.1012 143.167 6.31324 133.027C2.9218 124.021 0.893092 114.696 0.273317 105.071C0.25022 104.552 0.173229 104.032 0 103.513V93.345C0.173229 92.8985 0.24637 92.429 0.273317 91.9595C0.396502 89.6581 0.642872 87.3567 0.943136 85.0823C2.42906 74.0987 5.69346 63.6808 10.7171 53.8095C14.1817 47.0054 18.3892 40.6746 23.3359 34.8326C28.2363 29.0445 33.7296 23.8721 39.8157 19.3463C49.7398 11.9726 60.6533 6.65403 72.5791 3.39051C78.3689 1.80879 84.2856 0.769697 90.2716 0.273242C91.3341 0.173182 92.4505 0.250151 93.5129 0H103.51C104.276 0.223212 105.069 0.100061 105.835 0.173182C109.796 0.519545 113.731 1.016 117.638 1.78185C129.937 4.20639 141.343 8.80918 151.887 15.6094C160.079 20.878 167.305 27.2357 173.614 34.6325C178.688 40.5707 182.992 47.0285 186.506 54.0019C190.664 62.2415 193.632 70.8737 195.318 79.9522C196.207 84.7513 196.877 89.6004 196.9 94.4995C196.9 94.8228 196.973 95.1691 197 95.4886V101.327C196.9 101.696 196.9 102.093 196.877 102.489C196.877 103.428 196.877 104.371 196.804 105.31C196.357 111.298 195.418 117.209 193.932 123.048C191.087 134.008 186.506 144.176 180.147 153.551C175.42 160.528 169.903 166.813 163.567 172.377C157.257 177.919 150.351 182.595 142.852 186.378C134.214 190.731 125.133 193.752 115.605 195.407C111.945 196.049 108.257 196.469 104.546 196.692C103.568 196.804 102.529 196.781 101.512 197ZM61.6965 149.995C63.3287 150.045 65.1611 149.845 66.9935 149.452C72.4136 148.263 77.0177 145.792 80.5554 141.413C82.7073 138.742 84.5166 135.848 86.0756 132.803C87.908 129.217 89.4401 125.48 90.7759 121.697C92.4081 117.121 93.7939 112.445 94.8603 107.719C95.4531 105.071 94.7871 103.413 91.8653 102.5C88.1544 101.338 84.4165 100.299 80.6054 99.4563C74.296 98.0709 67.9366 97.1819 61.4501 97.4013C59.6178 97.4744 57.7892 97.6745 55.9799 97.9939C50.733 98.9099 46.2791 101.334 42.6413 105.167C36.4282 111.698 33.9568 119.492 35.4889 128.374C37.6908 141.066 48.9276 150.095 61.6965 149.995ZM72.1634 59.0049C72.0903 60.8599 72.4367 62.8881 73.0064 64.9162C74.0959 68.7762 75.9013 72.313 78.0301 75.6535C82.8805 83.2504 88.9936 89.7543 95.6263 95.7926C96.1691 96.289 96.8158 96.7085 97.5087 97.028C98.2017 97.3743 98.8946 97.3743 99.6106 97.078C100.304 96.7817 100.923 96.3622 101.443 95.8157C103.745 93.5412 106.02 91.2629 108.199 88.9115C111.267 85.571 114.189 82.1343 116.837 78.4475C119.239 75.107 121.391 71.5933 122.973 67.7833C124.556 63.9964 125.325 60.0902 124.806 55.9839C123.94 49.2067 121.045 43.4648 115.871 38.962C109.754 33.6473 102.629 31.5191 94.61 32.7044C81.5678 34.6363 72.1134 46.1164 72.1634 59.0049ZM136.455 149.848C137.097 149.825 138.26 149.848 139.422 149.675C147.241 148.513 153.427 144.726 157.785 138.099C161.199 132.88 162.585 127.088 161.942 120.881C161.349 115.066 158.997 109.97 155.013 105.691C151.549 101.981 147.414 99.4063 142.417 98.3172C139.669 97.7245 136.874 97.4744 134.079 97.4282C130.765 97.3782 127.474 97.6745 124.205 98.1209C117.673 99.0369 111.286 100.596 105.004 102.574C104.361 102.77 103.768 103.07 103.248 103.49C102.579 104.032 102.209 104.702 102.209 105.568C102.209 106.31 102.282 107.053 102.455 107.796C102.852 109.282 103.198 110.763 103.595 112.226C105.427 118.907 107.652 125.437 110.697 131.672C112.453 135.259 114.485 138.649 117.084 141.693C119.062 143.995 121.364 145.873 124.113 147.185C127.87 148.982 131.777 149.948 136.455 149.848Z" fill="url(#paint0_linear_274_7)"/>
<defs>
<linearGradient id="paint0_linear_274_7" x1="98.5068" y1="0" x2="98.5068" y2="197.002" gradientUnits="userSpaceOnUse">
<stop stop-color="#DD3069"/>
<stop offset="1" stop-color="#942049"/>
</linearGradient>
</defs>
</svg>
