<svg width="128" height="128" viewBox="0 0 128 128" fill="none" xmlns="http://www.w3.org/2000/svg">
<path d="M71.4389 43.961C71.9029 43.599 72.3189 43.235 72.6929 42.881C71.6529 43.136 70.5929 43.141 69.5249 43.044C68.2439 43.062 69.7669 43.703 71.4389 43.961ZM76.3979 41.331C77.1629 40.276 77.7199 39.125 77.9159 37.934C77.7439 38.782 77.2839 39.514 76.8499 40.289C74.4549 41.798 76.6229 39.394 76.8479 38.478C74.2739 41.723 76.4919 40.424 76.3979 41.331ZM78.9389 34.725C79.0939 32.418 78.4849 33.15 78.2799 34.028C78.5189 34.152 78.7079 35.654 78.9389 34.725ZM64.6659 3.19401C65.3499 3.31601 66.1449 3.41001 66.0299 3.57401C66.7799 3.40801 66.9499 3.25901 64.6659 3.19401ZM65.9989 3.63201L66.0299 3.57401L65.5499 3.67501L65.9989 3.63201ZM64.2549 51.306C62.4109 50.444 60.7239 49.14 59.3349 47.545C60.0729 48.621 60.8679 49.669 61.8959 50.492C60.1559 49.905 57.8339 46.28 57.1569 46.133C60.1539 51.498 69.3119 55.542 74.1109 53.535C71.8899 53.618 69.0709 53.581 66.5779 52.658C65.6149 52.164 64.3439 51.188 64.3339 50.868C64.2869 50.993 64.2059 51.118 64.2549 51.306ZM91.8719 29.822C91.8929 28.644 92.1999 29.205 92.3169 28.916C92.0879 28.782 91.4809 27.881 91.1139 26.151C91.3789 25.744 91.8269 27.205 92.1899 27.263C91.9559 25.889 91.5539 24.841 91.5369 23.784C90.4739 21.564 91.1609 24.081 90.2999 22.831C89.1679 19.305 91.2379 22.013 91.3789 20.411C93.0909 22.892 94.0669 26.742 94.5189 28.337C94.1749 26.394 93.6229 24.51 92.9459 22.687C93.4679 22.909 92.1069 18.691 93.6239 21.483C92.0049 15.529 86.6989 9.96501 81.8159 7.35601C82.4129 7.90201 83.1659 8.58701 82.8969 8.69601C80.4679 7.25101 80.8939 7.13701 80.5459 6.52701C78.5689 5.72101 78.4379 6.59201 77.1299 6.52901C73.4009 4.55001 72.6819 4.75901 69.2499 3.52201L69.4059 4.25201C66.9359 3.43001 66.5289 4.56201 63.8599 4.25301C63.6969 4.12701 64.7149 3.79401 65.5539 3.67401C63.1649 3.98801 63.2769 3.20101 60.9399 3.76001C61.5149 3.35601 62.1259 3.08701 62.7379 2.74401C60.7919 2.86201 58.0889 3.87801 58.9229 2.95301C55.7469 4.37201 50.1059 6.36101 46.9389 9.33001L46.8389 8.66501C45.3889 10.406 40.5129 13.866 40.1239 16.123L39.7359 16.213C38.9829 17.491 38.4939 18.94 37.8949 20.254C36.9069 21.937 36.4469 20.902 36.5879 21.166C34.6459 25.103 33.6799 28.41 32.8489 31.125C33.4409 32.012 32.8619 36.467 33.0859 40.032C32.1119 57.645 45.4469 74.745 60.0229 78.692C62.1599 79.458 65.3359 79.43 68.0379 79.505C64.8499 78.593 64.4389 79.023 61.3319 77.94C59.0919 76.884 58.6009 75.679 57.0139 74.301L57.6429 75.411C54.5319 74.309 55.8329 74.048 53.2999 73.246L53.9709 72.372C52.9619 72.295 51.2989 70.672 50.8439 69.771L49.7399 69.815C48.4149 68.18 47.7069 67 47.7599 66.086L47.4039 66.722C47.0009 66.029 42.5249 60.585 44.8459 61.852C44.4149 61.459 43.8419 61.211 43.2199 60.081L43.6929 59.542C42.5779 58.104 41.6369 56.262 41.7099 55.647C42.3049 56.451 42.7179 56.602 43.1279 56.741C40.3059 49.741 40.1489 56.355 38.0119 49.615L38.4639 49.58C38.1179 49.057 37.9059 48.491 37.6279 47.934L37.8259 45.975C35.7959 43.629 37.2589 35.992 37.5529 31.804C37.7539 30.101 39.2479 28.287 40.3819 25.445L39.6909 25.326C41.0129 23.022 47.2369 16.068 50.1209 16.425C51.5169 14.671 49.8429 16.417 49.5699 15.978C52.6379 12.803 53.6029 13.735 55.6729 13.163C57.9049 11.839 53.7569 13.682 54.8149 12.659C58.6759 11.674 57.5499 10.417 62.5859 9.91701C63.1179 10.219 61.3539 10.384 60.9109 10.776C64.1259 9.20201 71.0869 9.56101 75.6109 11.649C80.8549 14.101 86.7499 21.348 86.9839 28.167L87.2489 28.237C87.1159 30.948 87.6639 34.084 86.7109 36.963L87.3549 35.599C87.4319 37.67 86.7509 38.677 86.1349 40.456L85.0269 41.008C84.1209 42.769 85.1169 42.126 84.4679 43.526C83.0519 44.784 80.1759 47.461 79.2549 47.706C78.5829 47.692 79.7109 46.913 79.8589 46.608C77.9649 47.908 78.3389 48.559 75.4419 49.35L75.3579 49.16C68.2159 52.522 58.2959 45.863 58.4249 36.778C58.3499 37.354 58.2089 37.211 58.0509 37.442C57.6829 32.769 60.2089 28.075 64.4729 26.155C68.6419 24.092 73.5289 24.937 76.5139 27.724C74.8749 25.575 71.6089 23.297 67.7409 23.508C63.9509 23.57 60.4049 25.977 59.2219 28.593C57.2799 29.815 57.0549 33.305 56.2089 33.945C55.0689 42.312 58.3499 45.926 63.8999 50.179C64.3479 50.482 64.3989 50.653 64.3589 50.808L64.3659 50.796C70.9119 53.239 77.6729 52.646 83.3369 48.106C84.7779 46.984 86.3529 45.074 86.8079 45.047C86.1229 46.079 86.9259 45.543 86.3989 46.453C87.8339 44.137 85.7749 45.51 87.8829 42.454L88.6619 43.525C88.3699 41.601 91.0489 39.268 90.7769 36.227C91.3909 35.298 91.4619 37.229 90.8099 39.367C91.7149 36.995 91.0499 36.614 91.2809 34.655C91.5299 35.314 91.8619 36.012 92.0309 36.708C91.4419 34.415 92.6339 32.848 92.9299 31.515C92.6299 31.387 92.0139 32.529 91.8719 29.822ZM55.3609 45.699C56.2029 46.844 56.8719 48.083 57.9459 48.974C57.1729 47.467 56.5989 46.843 55.5419 44.801L55.3609 45.699ZM57.5309 44.725C57.0859 44.232 56.8229 43.637 56.5259 43.047C56.8099 44.085 57.3879 44.978 57.9259 45.887L57.5309 44.725ZM90.3329 44.666C91.5949 42.294 92.4089 39.698 92.7529 37.068L92.5649 37.541C92.2219 39.992 91.4749 42.417 90.3329 44.666ZM67.9689 2.19601C66.7699 2.29701 65.5779 2.35601 64.4009 2.50801L64.9199 2.57901C65.7859 2.26301 67.0479 2.40501 67.9689 2.19601ZM34.8609 20.095C35.7519 18.089 34.6149 19.38 34.5169 18.84C34.6569 20.619 33.1499 21.294 34.8609 20.095ZM32.4629 27.301C32.8649 26.07 32.9369 25.329 33.0899 24.616C31.9819 26.034 32.5799 26.337 32.4629 27.301ZM33.1449 95.852C31.7159 96.529 30.4829 96.965 27.7819 97.204C28.8539 98.355 28.8539 98.952 28.8539 104.194C28.1009 103.957 27.1459 103.678 25.5169 103.678C18.4059 103.678 17.2539 109.875 17.2539 114.486C17.2539 125.688 23.2129 125.688 24.0869 125.688C26.5499 125.688 28.1399 124.336 28.8149 121.994L28.8949 125.529C29.6499 125.488 30.4039 125.409 31.6359 125.409C32.0729 125.409 32.4289 125.409 32.7479 125.45C33.0659 125.45 33.3829 125.488 33.7419 125.529C33.1059 124.258 32.6289 121.398 32.6289 115.199C32.6289 109.16 32.6289 98.951 33.1449 95.852ZM28.6559 117.901C28.5779 119.25 28.4579 122.15 25.5979 122.15C22.6579 122.15 21.9419 118.773 21.7049 117.304C21.4269 115.676 21.4269 114.324 21.4269 113.729C21.4269 111.823 21.5459 106.498 26.0349 106.498C27.3869 106.498 28.1409 106.896 28.7359 107.213L28.7759 109.796C28.7349 109.837 28.7349 116.231 28.6559 117.901ZM42.7319 103.638C34.6279 103.638 34.6279 112.618 34.6279 114.524C34.6279 122.587 38.2429 125.765 44.3209 125.765C47.0209 125.765 48.3329 125.37 49.0489 125.17C49.0089 123.74 49.2069 122.826 49.4469 121.595C48.6109 122.113 47.5389 122.688 45.1549 122.688C38.9579 122.688 38.8769 117 38.8769 115H49.4459L49.5229 112.757C49.5239 108.109 48.6109 103.638 42.7319 103.638ZM45.5919 113H38.7989C38.8399 110 39.5159 106.763 42.3349 106.763C45.4349 106.763 45.6699 110 45.5919 113ZM60.5439 103.678C56.7299 103.678 55.6179 106.857 55.0229 108.486C55.0229 106.46 55.0619 99.388 55.3779 95.773C52.7969 96.965 51.1819 97.163 49.4759 97.322C51.0239 97.956 50.9999 100.58 50.9999 109.122V119H51.0479C51.0479 122 51.0479 123.555 50.5719 124.826C52.1999 125.461 54.2249 125.792 56.6499 125.792C58.1989 125.792 62.6879 125.778 65.1109 120.813C66.2629 118.508 66.6599 115.403 66.6599 113.059C66.6599 111.628 66.5009 108.487 65.3489 106.501C64.2379 104.635 62.4499 103.678 60.5439 103.678ZM57.1659 123.224C56.5299 123.224 55.7359 123.104 55.2209 122.985C55.1409 121.555 55.1409 119.091 55.1409 116.232C55.1409 112.814 55.4979 111.03 55.7769 110.154C56.6099 107.334 58.4779 107.296 58.8349 107.296C61.8549 107.296 62.4499 111.467 62.4499 114.565C62.4489 118.258 61.7739 123.224 57.1659 123.224ZM73.5409 108.723C73.5409 106.063 73.5829 105.186 73.8989 103.439C72.3899 104.155 71.4769 104.393 68.2199 104.71C68.7759 105.107 69.1329 105.344 69.3309 106.856C69.6089 108.842 69.5679 118.297 69.4099 121.834C69.2909 124.415 69.1319 124.774 68.7349 125.529C69.6479 125.41 70.5239 125.329 71.7929 125.329C72.9449 125.329 73.5019 125.409 74.2979 125.529C73.4219 123.898 73.4609 122.431 73.5409 108.723ZM90.8719 117.78L90.9129 109.676C90.9129 106.655 90.1169 103.677 84.1579 103.677C80.2259 103.677 77.9219 104.868 76.7699 105.465C77.2479 106.339 77.6449 107.091 78.0019 108.803C79.5519 107.452 81.5779 106.737 83.6419 106.737C86.9419 106.737 86.9419 108.922 86.9419 112.019C86.1869 111.98 85.5499 111.901 84.4769 111.901C79.4299 111.903 76.0929 113.846 76.0929 119.172C76.0929 121.676 76.8479 124.177 79.0739 125.25C80.0669 125.688 81.0589 125.688 81.3779 125.688C85.0329 125.688 86.2639 122.985 87.0199 121.317C86.9799 123.065 87.0199 124.136 87.1389 125.529C87.8539 125.488 88.5689 125.409 89.7629 125.409C90.4379 125.409 91.0729 125.488 91.7479 125.529C91.3109 124.854 91.0729 124.455 90.9529 122.906C90.8719 121.396 90.8719 119.887 90.8719 117.78ZM86.2229 119.783C85.3889 121.571 83.9979 122.159 82.9659 122.159C80.5799 122.159 80.0659 120.066 80.0659 118.12C80.0659 114.386 83.4039 113.999 84.9119 113.999H87.0189C86.9399 117 86.8989 118.393 86.2229 119.783ZM110 121.595V109.634C110 107.252 109.665 103.637 104.698 103.637C100.724 103.637 99.9999 106.377 98.9999 107.611V103.401C97.9999 103.917 97.1809 104.433 93.9629 104.593C94.3979 104.989 94.8989 105.346 95.0969 106.897C95.4569 109.438 95.3499 120.165 95.2689 122.35C95.1899 124.574 95.0569 124.892 94.7789 125.529C95.5719 125.409 96.2199 125.371 97.1749 125.371C98.3669 125.371 99.2069 125.45 99.8809 125.529C99.4849 124.136 99.4869 123.662 99.4489 118.577C99.4489 112.697 99.4499 111.187 99.7669 109.797C100.045 108.446 100.801 106.778 103.065 106.778C105.372 106.778 105.685 108.606 105.763 109.279C105.885 110.232 106 112.935 106 114.802V119.091C106 120.164 105.805 123.225 105.685 124.136C105.607 124.813 105.467 125.013 105.309 125.529C106.066 125.411 106.553 125.33 107.507 125.33C109.133 125.33 109.685 125.45 110.56 125.529C110.005 124.376 110 122.946 110 121.595ZM71.3419 101.1L68.0529 97.811L71.3429 94.522L74.6319 97.811L71.3419 101.1Z" fill="#A80030"/>
</svg>
