<svg width="256" height="256" viewBox="0 0 256 256" fill="none" xmlns="http://www.w3.org/2000/svg">
<path d="M206 12H50C26.804 12 8 30.804 8 54V202C8 225.196 26.804 244 50 244H206C229.196 244 248 225.196 248 202V54C248 30.804 229.196 12 206 12Z" fill="#00005B"/>
<path d="M60 182.88V74C59.9803 73.8483 59.9958 73.694 60.0451 73.5492C60.0945 73.4044 60.1764 73.2728 60.2846 73.1646C60.3928 73.0564 60.5244 72.9745 60.6692 72.9252C60.814 72.8758 60.9682 72.8604 61.12 72.88C69.23 72.67 78.8 72 91.28 72C106 72 116.8 75.07 123.68 81.68C127.022 84.8073 129.669 88.6033 131.447 92.8211C133.225 97.0388 134.095 101.584 134 106.16C134 118.22 129.733 127.18 121.2 133.04C112.667 138.9 101.933 141.833 89 141.84L80 142V182.72C80.0251 182.894 80.0093 183.071 79.9539 183.238C79.8984 183.405 79.8049 183.556 79.6806 183.681C79.5563 183.805 79.4048 183.898 79.238 183.954C79.0713 184.009 78.8939 184.025 78.72 184H61.28C60.43 184 60 183.63 60 182.88ZM80 87.62V127C80 127 84.56 126.82 90 126.82C97.1533 126.82 102.94 125.247 107.36 122.1C111.78 118.953 113.993 113.8 114 106.64C114 100.347 112.053 95.4933 108.16 92.08C104.267 88.6667 98.64 86.9733 91.28 87C89.47 87 87.68 87 85.92 87.08C84.16 87.16 82.72 87.16 81.6 87.16C80.48 87.16 79.88 87.12 80 87.62ZM149 104H166C166.41 103.986 166.812 104.11 167.144 104.351C167.475 104.591 167.717 104.936 167.83 105.33C169.104 108.054 169.84 110.997 170 114C176.42 105.7 184.32 102 194.84 102C194.999 101.972 195.162 101.982 195.315 102.03C195.469 102.079 195.609 102.163 195.723 102.277C195.836 102.391 195.921 102.531 195.969 102.685C196.018 102.838 196.028 103.001 196 103.16V120.82C196 121.71 195.56 122.09 194.67 121.98C185.04 121.43 177.4 122.69 171.87 128.22C171.313 128.686 170.86 129.263 170.538 129.914C170.216 130.564 170.033 131.275 170 132V182.84C170 183.61 169.56 184 168.67 184H151.49C150.49 184 150 183.56 150 182.67V126C150 112.58 149 110.67 148 105.16C147.89 104.39 148.22 104 149 104Z" fill="#9999FF"/>
</svg>
