<svg width="96" height="100" viewBox="0 0 96 100" fill="none" xmlns="http://www.w3.org/2000/svg">
<path d="M61.7374 80.88C57.697 80.88 54.9495 83.76 54.9495 87.76C54.9495 91.52 57.697 94.64 61.7374 94.64C65.697 94.64 68.4444 91.52 68.4444 87.76C68.4444 83.76 65.7778 80.88 61.7374 80.88ZM61.7374 92.64C58.8283 92.64 57.6162 90.08 57.6162 87.76C57.6162 85.28 59.1515 82.88 61.7374 82.88C64.3232 82.88 65.8586 85.28 65.8586 87.76C65.8586 90.08 64.5657 92.64 61.7374 92.64ZM48.7273 80.16V80.8H45.4949V82.16C45.4949 82.72 46.0606 83.12 46.6263 83.12H48.7273V94.32H50.0202C50.5859 94.32 51.1515 93.76 51.1515 93.28V83.2H53.5758C54.1414 83.2 54.3838 82.64 54.3838 82.08V80.8H51.1515V79.92C51.1515 78.16 51.3939 76.8 53.495 76.8H53.5758C54.1414 76.88 54.6263 76.4 54.7071 75.76L54.7879 74.96C54.303 74.88 53.8182 74.8 53.1717 74.8C49.5354 74.88 48.7273 76.96 48.7273 80.16ZM22.1414 80.96V81.04C21.6566 81.04 21.0909 81.44 20.9293 81.92L17.5354 92H17.4545L14.1414 82C13.899 81.52 13.4141 80.96 12.9293 80.96V80.8H11.2323L15.7576 93.2C15.9192 93.6 16.2424 94.4 16.2424 94.72C16.2424 94.96 15.5152 98 13.3333 98H13.1717C12.6061 98 12.202 98.4 12.1212 98.96L12.0404 99.84C12.4444 99.92 12.9293 100 13.7374 100C16.9697 100 17.9394 96.88 18.8283 94.4L23.6768 80.8H22.1414V80.96ZM6.62626 83.84C4.60606 82.8 2.42424 82.16 2.34343 80.08C2.34343 77.92 4.36364 77.36 5.89899 77.36C6.54545 77.36 7.11111 77.44 7.67677 77.52C8.24242 77.6 8.72727 77.12 8.80808 76.56L8.88889 75.76C7.83838 75.52 6.78788 75.36 5.89899 75.36C2.50505 75.36 0 77.04 0 80.32C0 83.12 1.93939 84.24 3.9596 85.2C5.9798 86.16 8.24242 86.96 8.24242 89.28C8.24242 91.68 5.89899 92.64 4.20202 92.64C3.23232 92.64 2.18182 92.4 1.37374 92.16C0.808081 92.08 0.40404 92.56 0.323232 93.2L0.242424 93.84C1.45455 94.24 2.66667 94.48 3.87879 94.48C7.67677 94.48 10.6667 93.04 10.6667 89.12C10.5859 86.08 8.64646 84.88 6.62626 83.84ZM40.0808 80.88C38.8687 80.88 36.8485 81.52 35.9596 83.44C35.2323 81.68 33.697 80.96 32.1616 80.96C30.2222 80.96 28.8485 81.6 27.9596 83.2H27.7172V82.24C27.7172 81.68 27.3131 80.96 26.6667 80.96L26.7475 80.8H25.2929V94.4H26.9091C27.5556 94.4 27.8788 93.84 27.8788 93.28L27.7172 93.2V87.76C27.7172 85.28 29.0101 82.88 31.5152 82.88C33.4545 82.88 34.1818 84.88 34.1818 86.56V94.48H35.2323C35.798 94.48 36.6061 93.92 36.6061 93.36V87.76C36.6061 85.28 37.4949 82.88 40 82.88C41.9394 82.88 42.2626 84.88 42.2626 86.56V94.48H43.5556C44.1212 94.48 44.6869 94 44.6869 93.52V86C44.6869 83.04 43.4747 80.88 40.0808 80.88ZM77.5758 80.8C75.7172 80.8 73.8586 81.6 73.1313 83.2H72.9697V82.24C72.9697 81.6 72.4848 80.96 71.8384 80.96V80.8H70.5455V94.4H72C72.5657 94.4 72.9697 93.84 72.9697 93.28V88.24C72.9697 85.04 74.4242 82.8 77.2525 82.8C79.3535 82.96 80.2424 84.4 80.2424 87.44V94.32H81.2929C81.8586 94.32 82.6667 93.76 82.6667 93.2V86.48C82.6667 82.96 80.9697 80.8 77.5758 80.8ZM94.4646 80.8V81.04C93.9798 81.04 93.4141 81.44 93.2525 81.92L89.8586 92H89.7778L86.4646 82C86.2222 81.52 85.7374 80.96 85.2525 80.96V80.8H83.5556L88.0808 93.2C88.2424 93.6 88.5657 94.4 88.5657 94.72C88.5657 94.96 87.8384 98 85.6566 98H85.495C84.9293 98 84.5253 98.4 84.4444 98.96L84.3636 99.84C84.7677 99.92 85.2525 100 86.0606 100C89.2929 100 90.2626 96.88 91.1515 94.4L96 80.8H94.4646ZM47.9192 71.36C67.798 71.36 83.9596 55.36 83.9596 35.68C83.9596 16 67.798 0 47.9192 0C28.0404 0 11.8788 16 11.8788 35.68C11.8788 55.36 28.0404 71.36 47.9192 71.36ZM24 38.24C24.5657 36.48 25.9394 36.16 27.3939 36.56C28.8485 37.04 29.4949 38.8 29.0101 40.16C28.9293 40.32 28.8485 40.56 28.7677 40.88L28.1212 42C27.798 43.12 29.2525 43.84 30.303 44.16C32.6465 44.88 34.9091 43.68 35.4747 41.76C36.0404 40 34.9091 38.8 34.4242 38.4L32.2424 36.08C31.1919 34.96 29.0101 31.84 30.0606 28.32C30.4646 26.96 31.3535 25.52 32.6465 24.56C35.3131 22.56 38.303 22.24 41.0505 23.04C44.6869 24.08 46.3838 26.48 48.6465 28.24C49.9394 24.56 51.6364 20.96 54.303 17.92C56.6465 15.12 59.8788 13.2 63.5152 13.04C67.1515 12.96 69.899 14.56 70.0606 17.12C70.0606 18.24 69.495 20.4 67.2323 20.48C65.5354 20.56 64.404 19.52 64.3232 18.08C64.3232 17.52 64.4849 17.04 64.8081 16.48C65.2121 15.76 65.2929 15.68 65.2121 15.36C65.2121 14.4 63.7576 14.4 63.3535 14.4C57.9394 14.56 56.4848 21.84 55.3535 27.68L54.7879 30.8C57.9394 31.28 60.1212 30.72 61.3333 29.92C63.0303 28.8 60.8485 27.68 61.0909 26.4C61.4141 25.12 62.5455 24.48 63.5152 24.48C64.8081 24.48 65.7778 25.84 65.7778 27.2C65.697 29.44 62.7071 32.64 56.5657 32.48C55.8384 32.48 55.1111 32.4 54.4646 32.32L53.5758 38.64C52.5253 43.44 51.1515 49.92 46.303 55.6C42.101 60.56 37.8182 61.36 35.8788 61.36C32.3232 61.44 29.899 59.6 29.8182 57.04C29.7374 54.56 31.9192 53.28 33.3737 53.2C35.3131 53.12 36.6061 54.48 36.6869 56.08C36.7677 57.44 36.0404 57.84 35.5556 58.08C35.2323 58.32 34.7475 58.56 34.8283 59.12C34.8283 59.36 35.0707 59.92 35.8788 59.84C37.4141 59.76 38.3838 59.04 39.1111 58.56C42.5859 55.68 43.9596 50.64 45.7374 41.52L46.1414 39.28C46.7071 36.32 47.4343 33.04 48.404 29.68C45.9798 27.84 44.4444 25.6 41.1313 24.72C38.8687 24.08 37.4949 24.64 36.5253 25.84C35.3939 27.28 35.7172 29.12 36.8485 30.24L38.7071 32.24C40.9697 34.8 42.1818 36.8 41.697 39.52C40.9697 43.84 35.798 47.12 29.6566 45.28C24.3232 43.92 23.3535 40.24 24 38.24Z" fill="black"/>
</svg>
