<svg width="141" height="142" viewBox="0 0 141 142" fill="none" xmlns="http://www.w3.org/2000/svg">
<path d="M109.327 4.09614C101.78 6.01689 89.295 9.03346 81.612 11.0958L67.4834 14.6603L63.3649 21.9308L59.2525 29.3429H42.1012L0.940533 70.5036L42.1012 111.664H58.9755L63.2295 119.076C65.5627 123.195 68.4438 126.895 69.8167 127.307C72.1499 127.991 89.8491 132.799 113.446 139.103C119.344 140.611 124.281 141.713 124.423 141.571C124.693 141.3 126.756 134.024 129.089 125.38C131.422 116.737 134.851 104.117 136.637 97.388L139.93 85.3156L135.953 78.4513C133.755 74.7453 131.976 71.1808 131.976 70.4975C131.976 69.8141 133.762 66.1081 136.095 62.402L140.072 55.5439L137.191 45.5277C131.564 25.5014 126.491 9.1689 124.841 5.05652L123.056 0.937988L109.334 4.09614H109.327ZM102.876 22.4787C102.605 23.0266 97.2551 32.6304 90.8033 43.607L79.1434 63.6394H54.5861C41.0054 63.6394 30.2997 63.3685 30.5767 62.9561C30.9892 62.679 37.9888 55.2731 45.9427 46.6297C58.2922 33.4615 61.5858 30.8512 65.8397 30.0263C68.5854 29.6138 77.0933 27.416 84.6347 25.3598C99.7237 21.2413 103.559 20.6934 102.876 22.4787ZM118.106 33.7323C118.79 36.201 121.4 45.5277 123.869 54.4481L128.258 70.7745L124.416 84.6322C122.517 91.7257 120.596 98.8137 118.654 105.896C117.558 110.008 116.05 112.754 115.502 112.071C114.954 111.523 109.327 102.19 103.153 91.3548C95.6052 78.1805 92.1762 71.0515 92.8657 69.4016C94.5094 64.8768 114.819 29.4722 115.779 29.3368C116.192 29.3368 117.287 31.393 118.112 33.7262L118.106 33.7323ZM85.0411 88.3321C99.5821 112.754 103.559 120.024 102.876 120.572C102.605 120.843 93.0011 118.652 81.612 115.771L60.8962 110.285L45.9427 95.0547C37.8472 86.6822 30.8476 79.2763 30.7122 78.5929C30.4351 77.768 39.6326 77.4971 54.5861 77.6325L79.0079 78.045L85.0472 88.3321H85.0411Z" fill="#444444"/>
</svg>
