<svg width="567" height="567" viewBox="0 0 567 567" fill="none" xmlns="http://www.w3.org/2000/svg">
<path d="M567 567C513.9 534.75 460.65 502.35 411.3 479.4C361.8 456.3 316.05 442.5 259.35 423.45C202.5 404.55 134.55 380.55 108.3 333.3C82.05 286.05 97.35 215.55 86.25 156.15C75.15 96.75 37.5 48.45 0 0H567V567Z" fill="#001E3E"/>
<path d="M567 425.25C527.1 400.95 487.2 376.8 450.15 359.55C413.1 342.15 378.9 331.8 336.15 317.7C293.55 303.45 242.7 285.45 222.9 249.9C203.25 214.5 214.8 161.7 206.4 117.15C198.15 72.6 169.95 36.3 141.75 0H567V425.25Z" fill="#00307F"/>
<path d="M567 283.5C540.45 267.3 513.9 251.25 489.15 239.7C464.4 228.15 441.6 221.25 413.1 211.8C384.75 202.35 350.85 190.2 337.65 166.65C324.45 142.95 332.25 107.85 326.55 78.15C321 48.45 302.25 24.15 283.5 0H567V283.5Z" fill="#3C34B7"/>
<path d="M567 141.75C553.65 133.65 540.45 125.55 528 119.85C515.7 114 504.3 110.55 490.05 105.9C475.8 101.1 458.85 95.1 452.25 83.25C445.8 71.55 449.55 53.85 446.85 39C444 24.15 434.7 12.15 425.25 0H567V141.75Z" fill="#7028CD"/>
</svg>
