<svg width="37" height="54" viewBox="0 0 37 54" fill="none" xmlns="http://www.w3.org/2000/svg">
<path d="M19.5091 15.4788C19.5235 15.4596 19.5293 15.434 19.5436 15.4148L29.5796 3.07209C30.1401 2.37767 30.1401 1.25124 29.5796 0.556815C29.5738 0.550415 29.5681 0.547216 29.5623 0.544016C29.4376 0.375868 29.2814 0.240066 29.1046 0.146101C28.9278 0.0521359 28.7348 0.00227428 28.5389 0H8.46414C8.26466 0.00358799 8.06832 0.0558887 7.889 0.153209C7.70967 0.250529 7.55173 0.390494 7.42633 0.563217L7.42058 0.556815C7.14929 0.90622 7 1.35263 7 1.81445C7 2.27628 7.14929 2.72268 7.42058 3.07209L17.4795 15.4788C17.6047 15.6422 17.7603 15.7735 17.9355 15.8634C18.1107 15.9534 18.3014 16 18.4943 16C18.6873 16 18.8779 15.9534 19.0531 15.8634C19.2283 15.7735 19.3839 15.6422 19.5091 15.4788Z" fill="#61DAFB"/>
<path d="M20.1234 53.2183C20.1465 53.1895 20.1558 53.1511 20.1789 53.1223L36.3236 34.6081C37.2255 33.5665 37.2255 31.8769 36.3236 30.8352C36.3144 30.8256 36.3051 30.8208 36.2959 30.816C36.0952 30.5638 35.844 30.3601 35.5596 30.2192C35.2752 30.0782 34.9646 30.0034 34.6495 30H2.35535C2.03445 30.0054 1.71861 30.0838 1.43013 30.2298C1.14165 30.3758 0.887571 30.5857 0.685841 30.8448L0.676592 30.8352C0.240161 31.3593 0 32.0289 0 32.7217C0 33.4144 0.240161 34.084 0.676592 34.6081L16.8584 53.2183C17.0598 53.4634 17.3101 53.6602 17.5919 53.7951C17.8738 53.9301 18.1805 54 18.4909 54C18.8013 54 19.108 53.9301 19.3898 53.7951C19.6716 53.6602 19.9219 53.4634 20.1234 53.2183Z" fill="#61DAFB"/>
</svg>
