<svg width="122" height="118" viewBox="0 0 122 118" fill="none" xmlns="http://www.w3.org/2000/svg">
<path fill-rule="evenodd" clip-rule="evenodd" d="M60.9998 0.103027C27.6528 0.103027 0.611816 27.138 0.611816 60.491C0.611816 87.173 17.9148 109.808 41.9088 117.794C44.9258 118.354 46.0338 116.484 46.0338 114.889C46.0338 113.449 45.9778 108.692 45.9518 103.646C29.1518 107.299 25.6068 96.521 25.6068 96.521C22.8598 89.541 18.9018 87.685 18.9018 87.685C13.4218 83.937 19.3148 84.015 19.3148 84.015C25.3778 84.44 28.5718 90.238 28.5718 90.238C33.9578 99.468 42.6988 96.8 46.1448 95.258C46.6868 91.355 48.2518 88.69 49.9788 87.182C36.5658 85.657 22.4648 80.478 22.4648 57.339C22.4648 50.746 24.8248 45.359 28.6878 41.129C28.0598 39.609 25.9928 33.467 29.2718 25.149C29.2718 25.149 34.3418 23.526 45.8818 31.339C50.6998 30 55.8668 29.327 60.9998 29.304C66.1298 29.327 71.2998 29.998 76.1268 31.337C87.6528 23.524 92.7168 25.147 92.7168 25.147C96.0038 33.464 93.9368 39.607 93.3098 41.127C97.1818 45.357 99.5248 50.744 99.5248 57.337C99.5248 80.531 85.3978 85.637 71.9508 87.133C74.1178 89.007 76.0478 92.683 76.0478 98.316C76.0478 106.396 75.9778 112.899 75.9778 114.888C75.9778 116.495 77.0658 118.378 80.1258 117.785C104.106 109.791 121.389 87.163 121.389 60.491C121.388 27.14 94.3498 0.103027 60.9998 0.103027Z" fill="#FFFDFD"/>
<path d="M23.4836 86.8059C23.3506 87.1059 22.8786 87.1959 22.4486 86.9909C22.0086 86.7949 21.7636 86.3859 21.9056 86.0849C22.0356 85.7749 22.5086 85.6899 22.9456 85.8969C23.3856 86.0939 23.6356 86.5069 23.4826 86.8069L23.4836 86.8059ZM25.9296 89.5349C25.6426 89.8019 25.0796 89.6779 24.6976 89.2549C24.3016 88.8349 24.2276 88.2719 24.5206 88.0009C24.8186 87.7349 25.3646 87.8609 25.7606 88.2809C26.1546 88.7069 26.2326 89.2649 25.9306 89.5359L25.9296 89.5349ZM28.3116 93.0119C27.9416 93.2699 27.3356 93.0289 26.9616 92.4919C26.5916 91.9539 26.5916 91.3089 26.9716 91.0519C27.3446 90.7939 27.9416 91.0269 28.3216 91.5589C28.6896 92.1039 28.6896 92.7499 28.3116 93.0119ZM31.5726 96.3729C31.2426 96.7379 30.5366 96.6399 30.0206 96.1429C29.4936 95.6559 29.3466 94.9629 29.6776 94.5989C30.0136 94.2329 30.7226 94.3349 31.2416 94.8289C31.7686 95.3149 31.9276 96.0089 31.5746 96.3719L31.5726 96.3729ZM36.0726 98.3239C35.9256 98.7969 35.2476 99.0119 34.5626 98.8099C33.8796 98.6029 33.4326 98.0499 33.5726 97.5719C33.7126 97.0949 34.3956 96.8719 35.0846 97.0869C35.7676 97.2929 36.2146 97.8429 36.0726 98.3239ZM41.0156 98.6849C41.0326 99.1829 40.4526 99.5949 39.7356 99.6049C39.0126 99.6219 38.4276 99.2179 38.4206 98.7279C38.4206 98.2249 38.9886 97.8179 39.7106 97.8039C40.4276 97.7909 41.0166 98.1909 41.0166 98.6839L41.0156 98.6849ZM45.6136 97.9029C45.6996 98.3879 45.2006 98.8869 44.4876 99.0199C43.7876 99.1499 43.1376 98.8479 43.0476 98.3669C42.9616 97.8689 43.4696 97.3699 44.1696 97.2409C44.8836 97.1179 45.5236 97.4099 45.6136 97.9029Z" fill="#FFFDFD"/>
</svg>
