<svg width="56" height="56" viewBox="0 0 56 56" fill="none" xmlns="http://www.w3.org/2000/svg">
<path d="M52.9365 24.9713C52.124 24.9713 51.3448 25.2982 50.7703 25.8801C50.1958 26.462 49.873 27.2512 49.873 28.0742V46.6914C49.873 47.5143 49.5502 48.3035 48.9757 48.8855C48.4012 49.4674 47.622 49.7943 46.8095 49.7943H10.0474C9.23495 49.7943 8.45574 49.4674 7.88122 48.8855C7.3067 48.3035 6.98394 47.5143 6.98394 46.6914V9.45693C6.98394 8.634 7.3067 7.84477 7.88122 7.26287C8.45574 6.68097 9.23495 6.35406 10.0474 6.35406H28.4285C29.241 6.35406 30.0202 6.02715 30.5947 5.44525C31.1692 4.86335 31.492 4.07412 31.492 3.25119C31.492 2.42825 31.1692 1.63903 30.5947 1.05713C30.0202 0.475224 29.241 0.148315 28.4285 0.148315H10.0474C7.60997 0.148315 5.27233 1.12904 3.54877 2.87475C1.82522 4.62045 0.856934 6.98813 0.856934 9.45693V46.6914C0.856934 49.1602 1.82522 51.5279 3.54877 53.2736C5.27233 55.0193 7.60997 56 10.0474 56H46.8095C49.247 56 51.5846 55.0193 53.3082 53.2736C55.0317 51.5279 56 49.1602 56 46.6914V28.0742C56 27.2512 55.6772 26.462 55.1027 25.8801C54.5282 25.2982 53.749 24.9713 52.9365 24.9713Z" fill="#231F20"/>
<path d="M40.6824 6.35406H45.5228L26.2533 25.8401C25.9662 26.1285 25.7383 26.4717 25.5828 26.8498C25.4272 27.228 25.3472 27.6335 25.3472 28.0431C25.3472 28.4527 25.4272 28.8583 25.5828 29.2364C25.7383 29.6145 25.9662 29.9577 26.2533 30.2462C26.5381 30.537 26.877 30.7678 27.2503 30.9254C27.6236 31.0829 28.024 31.164 28.4284 31.164C28.8329 31.164 29.2333 31.0829 29.6066 30.9254C29.9799 30.7678 30.3187 30.537 30.6035 30.2462L49.873 10.7601V15.6627C49.873 16.4856 50.1957 17.2748 50.7702 17.8567C51.3448 18.4386 52.124 18.7655 52.9365 18.7655C53.749 18.7655 54.5282 18.4386 55.1027 17.8567C55.6772 17.2748 56 16.4856 56 15.6627V3.25119C56 2.42825 55.6772 1.63903 55.1027 1.05713C54.5282 0.475224 53.749 0.148315 52.9365 0.148315H40.6824C39.87 0.148315 39.0907 0.475224 38.5162 1.05713C37.9417 1.63903 37.6189 2.42825 37.6189 3.25119C37.6189 4.07412 37.9417 4.86335 38.5162 5.44525C39.0907 6.02715 39.87 6.35406 40.6824 6.35406Z" fill="#231F20"/>
</svg>
