<svg width="164" height="166" viewBox="0 0 164 166" fill="none" xmlns="http://www.w3.org/2000/svg">
<path d="M151.878 0.499933H12.1226C10.5516 0.478115 8.99175 0.765975 7.53203 1.34707C6.07232 1.92817 4.74137 2.79113 3.6152 3.88666C2.48902 4.98219 1.58969 6.28883 0.968551 7.73196C0.347412 9.1751 0.0166364 10.7265 -0.00488281 12.2974V153.702C0.0166364 155.273 0.347412 156.825 0.968551 158.268C1.58969 159.711 2.48902 161.018 3.6152 162.113C4.74137 163.209 6.07232 164.072 7.53203 164.653C8.99175 165.234 10.5516 165.522 12.1226 165.5H151.878C153.449 165.522 155.008 165.234 156.468 164.653C157.928 164.072 159.259 163.209 160.385 162.113C161.511 161.018 162.411 159.711 163.032 158.268C163.653 156.825 163.984 155.273 164.005 153.702V12.2974C163.984 10.7265 163.653 9.1751 163.032 7.73196C162.411 6.28883 161.511 4.98219 160.385 3.88666C159.259 2.79113 157.928 1.92817 156.468 1.34707C155.008 0.765975 153.449 0.478115 151.878 0.499933ZM49.7426 138.605H24.9926V64.3549H49.7426V138.605ZM37.3676 53.9599C33.9543 53.9599 30.6807 52.604 28.2672 50.1904C25.8536 47.7768 24.4976 44.5033 24.4976 41.0899C24.4976 37.6766 25.8536 34.4031 28.2672 31.9895C30.6807 29.5759 33.9543 28.2199 37.3676 28.2199C39.1801 28.0144 41.0156 28.194 42.7538 28.747C44.4921 29.3 46.094 30.2139 47.4545 31.4289C48.8151 32.6439 49.9037 34.1325 50.6491 35.7974C51.3944 37.4623 51.7797 39.2658 51.7797 41.0899C51.7797 42.914 51.3944 44.7176 50.6491 46.3825C49.9037 48.0473 48.8151 49.536 47.4545 50.751C46.094 51.966 44.4921 52.8799 42.7538 53.4329C41.0156 53.9859 39.1801 54.1655 37.3676 53.9599ZM139.008 138.605H114.258V98.7574C114.258 88.7749 110.71 82.2574 101.718 82.2574C98.9346 82.2778 96.2247 83.1507 93.953 84.7586C91.6814 86.3665 89.9571 88.632 89.0126 91.2499C88.367 93.189 88.0873 95.2312 88.1876 97.2724V138.522H63.4376C63.4376 138.522 63.4376 71.0374 63.4376 64.2724H88.1876V74.7499C90.436 70.8486 93.7061 67.6345 97.6458 65.4539C101.585 63.2732 106.045 62.2087 110.545 62.3749C127.045 62.3749 139.008 73.0174 139.008 95.8699V138.605Z" fill="white"/>
</svg>
